<svg width="460" height="175" viewBox="0 0 460 175" fill="none" xmlns="http://www.w3.org/2000/svg">
<path d="M180.568 120.048C178.36 120.08 176.28 119.68 174.328 118.848C172.376 118.016 170.648 116.832 169.144 115.296C167.64 113.76 166.456 111.968 165.592 109.92C164.728 107.872 164.264 105.648 164.2 103.248C164.168 100.944 164.568 98.784 165.4 96.768C166.232 94.752 167.4 92.976 168.904 91.44C170.408 89.904 172.152 88.704 174.136 87.84C176.12 86.944 178.264 86.496 180.568 86.496C182.776 86.464 184.856 86.864 186.808 87.696C188.76 88.528 190.488 89.712 191.992 91.248C193.496 92.752 194.68 94.528 195.544 96.576C196.44 98.624 196.904 100.848 196.936 103.248C197 105.552 196.6 107.712 195.736 109.728C194.904 111.744 193.736 113.52 192.232 115.056C190.728 116.56 188.968 117.76 186.952 118.656C184.968 119.52 182.84 119.984 180.568 120.048ZM180.712 110.688C182.12 110.688 183.352 110.176 184.408 109.152C185.496 108.128 186.024 106.736 185.992 104.976C185.992 103.184 185.464 101.776 184.408 100.752C183.352 99.728 182.12 99.216 180.712 99.216C179.304 99.216 178.072 99.728 177.016 100.752C175.96 101.776 175.432 103.184 175.432 104.976C175.432 106.736 175.96 108.128 177.016 109.152C178.072 110.176 179.304 110.688 180.712 110.688ZM202.799 126.864C201.551 126.864 200.575 126.368 199.871 125.376C199.199 124.416 198.719 123.152 198.431 121.584C198.175 120.016 198.015 118.336 197.951 116.544C197.919 114.752 197.903 113.056 197.903 111.456C197.903 110.048 197.935 108.544 197.999 106.944C198.095 105.312 198.287 103.776 198.575 102.336C198.895 100.864 199.423 99.664 200.159 98.736C200.895 97.808 201.903 97.344 203.183 97.344C204.175 97.344 204.943 97.536 205.487 97.92C206.031 98.304 206.447 98.752 206.735 99.264C207.471 98.72 208.383 98.288 209.471 97.968C210.559 97.616 211.727 97.44 212.975 97.44C215.055 97.44 216.943 97.952 218.639 98.976C220.367 100 221.743 101.376 222.767 103.104C223.791 104.8 224.303 106.688 224.303 108.768C224.303 110.848 223.791 112.752 222.767 114.48C221.743 116.208 220.367 117.584 218.639 118.608C216.943 119.632 215.055 120.144 212.975 120.144C211.695 120.144 210.511 119.984 209.423 119.664C208.335 119.312 207.423 118.848 206.687 118.272C206.687 119.872 206.623 121.328 206.495 122.64C206.399 123.952 206.079 124.976 205.535 125.712C204.991 126.48 204.079 126.864 202.799 126.864ZM212.735 112.176C213.567 112.176 214.287 111.872 214.895 111.264C215.535 110.624 215.855 109.888 215.855 109.056C215.855 108.224 215.535 107.504 214.895 106.896C214.287 106.256 213.567 105.936 212.735 105.936C211.903 105.936 211.167 106.256 210.527 106.896C209.919 107.504 209.615 108.224 209.615 109.056C209.615 109.888 209.919 110.624 210.527 111.264C211.167 111.872 211.903 112.176 212.735 112.176ZM237.795 120C235.395 120 233.283 119.536 231.459 118.608C229.667 117.648 228.259 116.352 227.235 114.72C226.243 113.056 225.747 111.152 225.747 109.008C225.747 106.928 226.243 105.008 227.235 103.248C228.259 101.488 229.651 100.08 231.411 99.024C233.203 97.968 235.251 97.44 237.555 97.44C239.699 97.44 241.539 97.872 243.075 98.736C244.611 99.6 245.779 100.704 246.579 102.048C247.411 103.36 247.827 104.752 247.827 106.224C247.827 107.696 247.491 108.912 246.819 109.872C246.147 110.8 245.267 111.52 244.179 112.032C243.123 112.512 241.987 112.832 240.771 112.992C239.555 113.152 238.387 113.184 237.267 113.088C236.147 112.96 235.203 112.768 234.435 112.512C235.011 113.44 235.731 114.08 236.595 114.432C237.491 114.752 238.419 114.896 239.379 114.864C240.371 114.8 241.267 114.688 242.067 114.528C243.059 114.304 243.875 114.352 244.515 114.672C245.155 114.992 245.491 115.504 245.523 116.208C245.555 116.784 245.347 117.36 244.899 117.936C244.483 118.512 243.715 119.008 242.595 119.424C241.475 119.808 239.875 120 237.795 120ZM234.579 106.656C234.899 107.168 235.363 107.536 235.971 107.76C236.579 107.952 237.187 108.016 237.795 107.952C238.435 107.888 238.963 107.712 239.379 107.424C239.827 107.136 240.051 106.736 240.051 106.224C240.051 105.68 239.827 105.2 239.379 104.784C238.963 104.336 238.291 104.112 237.363 104.112C236.467 104.112 235.779 104.4 235.299 104.976C234.819 105.52 234.579 106.08 234.579 106.656ZM268.238 120C266.958 120 266.046 119.648 265.502 118.944C264.99 118.208 264.686 117.296 264.59 116.208C264.494 115.088 264.446 113.968 264.446 112.848C264.446 111.152 264.206 109.792 263.726 108.768C263.246 107.712 262.398 107.184 261.182 107.184C260.094 107.184 259.294 107.712 258.782 108.768C258.27 109.792 258.014 111.152 258.014 112.848C258.014 113.968 257.966 115.072 257.87 116.16C257.806 117.248 257.518 118.16 257.006 118.896C256.494 119.6 255.566 119.952 254.222 119.952C253.23 119.952 252.398 119.584 251.726 118.848C251.086 118.112 250.59 117.152 250.238 115.968C249.886 114.784 249.63 113.504 249.47 112.128C249.342 110.752 249.278 109.424 249.278 108.144C249.278 106.864 249.342 105.552 249.47 104.208C249.598 102.864 249.822 101.616 250.142 100.464C250.494 99.312 250.99 98.384 251.63 97.68C252.27 96.976 253.102 96.624 254.126 96.624C255.95 96.624 257.086 97.456 257.534 99.12C257.918 98.704 258.526 98.32 259.358 97.968C260.222 97.584 261.198 97.392 262.286 97.392C264.75 97.392 266.766 98.016 268.334 99.264C269.902 100.512 271.038 102.24 271.742 104.448C272.478 106.624 272.83 109.152 272.798 112.032C272.798 113.504 272.654 114.848 272.366 116.064C272.11 117.248 271.646 118.208 270.974 118.944C270.334 119.648 269.422 120 268.238 120ZM302.935 120C299.831 120 297.127 119.36 294.823 118.08C292.551 116.8 291.047 114.784 290.311 112.032C289.991 110.816 289.783 109.344 289.687 107.616C289.623 105.856 289.591 104 289.591 102.048C289.591 100.128 289.671 98.24 289.831 96.384C290.023 94.528 290.375 92.848 290.887 91.344C291.399 89.84 292.167 88.64 293.191 87.744C294.247 86.848 295.639 86.4 297.367 86.4C298.711 86.4 299.831 86.72 300.727 87.36C301.655 88 302.359 88.848 302.839 89.904C303.319 90.96 303.559 92.128 303.559 93.408C303.559 95.808 303.335 98.384 302.887 101.136C302.439 103.888 301.991 106.48 301.543 108.912C302.567 108.592 303.735 108.352 305.047 108.192C306.391 108 307.735 107.936 309.079 108C310.455 108.032 311.719 108.256 312.871 108.672C314.023 109.056 314.951 109.664 315.655 110.496C316.359 111.296 316.711 112.352 316.711 113.664C316.711 115.232 316.311 116.464 315.511 117.36C314.711 118.224 313.639 118.848 312.295 119.232C310.951 119.584 309.463 119.808 307.831 119.904C306.199 119.968 304.567 120 302.935 120ZM322.347 96.72C320.779 96.72 319.451 96.16 318.363 95.04C317.275 93.888 316.731 92.496 316.731 90.864C316.731 89.776 316.971 88.8 317.451 87.936C317.963 87.072 318.635 86.384 319.467 85.872C320.331 85.328 321.291 85.056 322.347 85.056C323.371 85.056 324.299 85.328 325.131 85.872C325.995 86.384 326.683 87.072 327.195 87.936C327.707 88.8 327.963 89.776 327.963 90.864C327.963 91.952 327.707 92.944 327.195 93.84C326.683 94.704 325.995 95.408 325.131 95.952C324.299 96.464 323.371 96.72 322.347 96.72ZM322.347 120C321.067 120 320.107 119.632 319.467 118.896C318.859 118.16 318.443 117.04 318.219 115.536C318.027 114 317.915 112.032 317.883 109.632C317.883 107.232 317.979 105.264 318.171 103.728C318.395 102.192 318.827 101.072 319.467 100.368C320.107 99.632 321.067 99.264 322.347 99.264C323.627 99.264 324.571 99.632 325.179 100.368C325.819 101.072 326.251 102.192 326.475 103.728C326.699 105.264 326.811 107.232 326.811 109.632C326.843 112.032 326.747 114 326.523 115.536C326.299 117.04 325.867 118.16 325.227 118.896C324.587 119.632 323.627 120 322.347 120ZM344.148 120C341.844 120 339.908 119.68 338.34 119.04C336.772 118.368 335.476 117.504 334.452 116.448C333.46 115.392 332.676 114.24 332.1 112.992C331.556 111.744 331.156 110.512 330.9 109.296C330.644 108.08 330.484 106.976 330.42 105.984C330.388 104.992 330.372 104.256 330.372 103.776C330.372 102.304 330.452 100.768 330.612 99.168C330.772 97.568 331.028 96.016 331.38 94.512C331.732 92.976 332.196 91.6 332.772 90.384C333.38 89.168 334.1 88.192 334.932 87.456C335.764 86.72 336.756 86.352 337.908 86.352C338.932 86.352 339.86 86.688 340.692 87.36C341.556 88.032 341.988 89.072 341.988 90.48C341.988 91.856 341.764 93.216 341.316 94.56C340.9 95.872 340.628 97.216 340.5 98.592C341.236 98.176 342.02 97.888 342.852 97.728C343.684 97.536 344.5 97.44 345.3 97.44C346.996 97.44 348.628 97.84 350.196 98.64C351.764 99.408 353.044 100.592 354.036 102.192C355.06 103.792 355.572 105.84 355.572 108.336C355.572 110.288 355.108 112.16 354.18 113.952C353.284 115.744 351.972 117.2 350.244 118.32C348.548 119.44 346.516 120 344.148 120ZM343.86 112.416C344.724 112.416 345.476 112.096 346.116 111.456C346.788 110.784 347.124 110 347.124 109.104C347.124 108.208 346.788 107.424 346.116 106.752C345.476 106.08 344.724 105.744 343.86 105.744C342.996 105.744 342.244 106.08 341.604 106.752C340.964 107.424 340.644 108.208 340.644 109.104C340.644 110 340.964 110.784 341.604 111.456C342.244 112.096 342.996 112.416 343.86 112.416ZM362.648 120C361.561 120 360.665 119.648 359.961 118.944C359.289 118.208 358.777 117.232 358.425 116.016C358.073 114.8 357.833 113.408 357.705 111.84C357.577 110.272 357.513 108.656 357.513 106.992C357.513 105.872 357.529 104.736 357.561 103.584C357.625 102.4 357.785 101.312 358.041 100.32C358.329 99.328 358.793 98.528 359.433 97.92C360.105 97.28 361.049 96.96 362.265 96.96C363.129 96.96 363.913 97.168 364.617 97.584C365.321 97.968 365.769 98.56 365.961 99.36C366.697 98.688 367.625 98.208 368.745 97.92C369.897 97.6 371.081 97.44 372.297 97.44C373.321 97.44 374.361 97.696 375.417 98.208C376.473 98.688 377.369 99.36 378.105 100.224C378.841 101.088 379.209 102.064 379.209 103.152C379.209 104.08 378.857 104.96 378.153 105.792C377.481 106.624 376.521 107.04 375.273 107.04C374.729 107.04 374.281 106.976 373.929 106.848C373.577 106.688 373.241 106.544 372.921 106.416C372.601 106.288 372.217 106.224 371.769 106.224C370.585 106.224 369.497 106.704 368.505 107.664C367.545 108.592 367.065 109.856 367.065 111.456C367.065 112.288 367.033 113.2 366.969 114.192C366.937 115.152 366.793 116.08 366.537 116.976C366.313 117.872 365.897 118.608 365.289 119.184C364.681 119.728 363.801 120 362.648 120ZM388.793 120C387.225 120 385.785 119.76 384.473 119.28C383.193 118.8 382.169 118.08 381.401 117.12C380.633 116.128 380.249 114.88 380.249 113.376C380.249 112.096 380.633 111.008 381.401 110.112C382.169 109.216 383.193 108.528 384.473 108.048C385.785 107.568 387.225 107.328 388.793 107.328C389.721 107.328 390.569 107.408 391.337 107.568C392.105 107.696 392.633 107.856 392.921 108.048C392.921 107.312 392.617 106.672 392.009 106.128C391.401 105.552 390.345 105.264 388.841 105.264C388.137 105.264 387.577 105.328 387.161 105.456C386.777 105.552 386.425 105.68 386.105 105.84C385.785 106 385.417 106.144 385.001 106.272C384.617 106.368 384.089 106.416 383.417 106.416C382.425 106.416 381.625 106.16 381.017 105.648C380.441 105.104 380.153 104.288 380.153 103.2C380.153 102.208 380.425 101.36 380.969 100.656C381.545 99.92 382.281 99.312 383.177 98.832C384.073 98.352 385.033 98 386.057 97.776C387.113 97.552 388.121 97.44 389.081 97.44C391.929 97.44 394.249 97.968 396.041 99.024C397.833 100.048 399.161 101.392 400.025 103.056C400.889 104.72 401.321 106.528 401.321 108.48C401.321 109.568 401.225 110.576 401.033 111.504C400.873 112.432 400.649 113.152 400.361 113.664C400.809 114.048 401.145 114.496 401.369 115.008C401.625 115.52 401.753 116.048 401.753 116.592C401.753 117.488 401.449 118.288 400.841 118.992C400.265 119.664 399.433 120 398.345 120C397.513 120 396.857 119.872 396.377 119.616C395.897 119.36 395.417 119.024 394.937 118.608C394.169 119.056 393.321 119.408 392.393 119.664C391.465 119.888 390.265 120 388.793 120ZM389.753 115.152C390.489 115.152 391.033 115.008 391.385 114.72C391.769 114.4 391.961 114.048 391.961 113.664C391.961 113.28 391.769 112.944 391.385 112.656C391.033 112.336 390.489 112.176 389.753 112.176C389.049 112.176 388.505 112.336 388.121 112.656C387.737 112.944 387.545 113.28 387.545 113.664C387.545 114.048 387.737 114.4 388.121 114.72C388.505 115.008 389.049 115.152 389.753 115.152ZM408.82 120C407.732 120 406.836 119.648 406.132 118.944C405.46 118.208 404.948 117.232 404.596 116.016C404.244 114.8 404.004 113.408 403.876 111.84C403.748 110.272 403.684 108.656 403.684 106.992C403.684 105.872 403.7 104.736 403.732 103.584C403.796 102.4 403.956 101.312 404.212 100.32C404.5 99.328 404.964 98.528 405.604 97.92C406.276 97.28 407.22 96.96 408.436 96.96C409.3 96.96 410.084 97.168 410.788 97.584C411.492 97.968 411.94 98.56 412.132 99.36C412.868 98.688 413.796 98.208 414.916 97.92C416.068 97.6 417.252 97.44 418.468 97.44C419.492 97.44 420.532 97.696 421.588 98.208C422.644 98.688 423.54 99.36 424.276 100.224C425.012 101.088 425.38 102.064 425.38 103.152C425.38 104.08 425.028 104.96 424.324 105.792C423.652 106.624 422.692 107.04 421.444 107.04C420.9 107.04 420.452 106.976 420.1 106.848C419.748 106.688 419.412 106.544 419.092 106.416C418.772 106.288 418.388 106.224 417.94 106.224C416.756 106.224 415.668 106.704 414.676 107.664C413.716 108.592 413.236 109.856 413.236 111.456C413.236 112.288 413.204 113.2 413.14 114.192C413.108 115.152 412.964 116.08 412.708 116.976C412.484 117.872 412.068 118.608 411.46 119.184C410.852 119.728 409.972 120 408.82 120ZM434.857 127.104C433.801 127.104 432.809 126.96 431.881 126.672C430.985 126.416 430.249 125.984 429.673 125.376C429.097 124.8 428.809 124.048 428.809 123.12C428.809 122 429.321 121.152 430.345 120.576C431.369 120 432.521 119.744 433.801 119.808C435.209 119.84 436.297 119.776 437.065 119.616C437.865 119.424 438.473 119.072 438.889 118.56C435.945 118.56 433.593 118.128 431.833 117.264C430.073 116.4 428.793 115.056 427.993 113.232C427.225 111.408 426.841 109.04 426.841 106.128C426.841 104.56 427.001 103.136 427.321 101.856C427.641 100.544 428.153 99.504 428.857 98.736C429.593 97.936 430.553 97.536 431.737 97.536C433.337 97.536 434.473 98 435.145 98.928C435.817 99.824 436.153 100.88 436.153 102.096C436.153 103.184 436.137 104.256 436.105 105.312C436.073 106.336 436.105 107.248 436.201 108.048C436.297 108.848 436.553 109.488 436.969 109.968C437.385 110.448 438.041 110.688 438.937 110.688C439.833 110.688 440.489 110.448 440.905 109.968C441.321 109.488 441.577 108.848 441.673 108.048C441.769 107.248 441.801 106.352 441.769 105.36C441.737 104.336 441.721 103.28 441.721 102.192C441.721 100.848 442.057 99.744 442.729 98.88C443.433 97.984 444.569 97.536 446.137 97.536C447.353 97.536 448.313 97.936 449.017 98.736C449.753 99.504 450.281 100.544 450.601 101.856C450.921 103.136 451.081 104.56 451.081 106.128C451.081 108.752 450.793 111.328 450.217 113.856C449.673 116.352 448.761 118.592 447.481 120.576C446.233 122.56 444.569 124.144 442.489 125.328C440.441 126.512 437.897 127.104 434.857 127.104Z" fill="#8D12ED"/>
<path d="M61.6828 88.7145C78.0189 87.9836 89.3106 76.4246 81.5886 68.3373C73.8666 60.25 50.416 59.0747 40.2479 66.2655C30.0798 73.4562 37.0997 89.8142 61.6828 88.7145Z" fill="#A0FFF0"/>
<path d="M31.5564 42.2834C55.4771 46.2276 84.513 50.2003 99.7041 62.0565C110.863 97.5981 105.21 135.04 106.349 171.2C103.683 176.629 84.5055 163.376 79.4299 162.098C61.9735 152.98 37.9354 144.809 37.1639 130.079C35.1046 101.26 35.1562 72.6713 33.7578 43.7615C33.4184 67.75 33.1986 93.8369 33.1045 120.718C31.4523 133.061 37.3216 145.727 55.7682 153.492C66.8529 157.104 102.263 183.688 110.997 172.091C110.67 134.35 114.062 97.5899 102.495 62.1668C87.6321 49.4476 55.9855 45.86 31.5564 42.2834Z" fill="black"/>
<path d="M108.364 174.193C115.7 173.434 125.445 174.996 131.57 172.445C133.734 161.483 130.436 149.999 130.503 138.852C126.388 110.755 131.412 80.9426 114.034 54.1248C102.786 42.6299 74.4807 42.3765 53.9216 40.2069C48.6231 39.9247 40.9434 39.4553 38.0457 42.5174C40.6548 39.9853 46.9476 40.2195 51.535 40.5135C124.293 43.7239 118.177 65.7305 122.249 99.1377C124.875 123.383 127.537 145.84 130.801 168.97C133.281 175.589 115.124 172.813 108.364 174.193Z" fill="black"/>
<path d="M129.953 171.085C150.413 183.428 143.02 112.441 139.884 106.801C132.122 96.4461 127.04 46.104 111.511 48.1171C128.151 49.97 121.63 81.6296 130.891 94.3124C135.208 101.356 151.639 181.455 129.953 171.085Z" fill="black"/>
<path d="M117.659 136.876C116.389 147.691 117.607 158.306 119.612 168.982C123.22 158.773 123.09 146.79 117.659 136.876Z" fill="black"/>
<path d="M118.759 133.417C117.194 107.757 126.221 77.107 100.408 54.4771C89.9572 47.6575 72.9699 48.2097 59.1839 44.9199C76.5072 49.1566 99.1207 50.5902 104.86 62.6187C115.527 85.0636 114.982 111.192 118.759 133.417Z" fill="black"/>
<path d="M46.1926 68.4803C67.7507 70.74 99.5333 65.9321 96.835 83.9443C97.6286 88.6486 100.477 105.308 89.6436 105.698C32.2147 100.232 50.9551 98.4622 46.9664 68.1085C47.3782 78.0813 40.0042 93.0891 49.7985 102.608C73.6419 104.867 103.247 117.277 102.398 94.8294C103.514 66.8716 89.7371 68.0324 46.1926 68.4803Z" fill="black"/>
<path d="M145.309 40.19C140.423 40.2578 140.436 44.2623 145.309 44.3375C150.195 44.2697 150.182 40.2652 145.309 40.19Z" fill="black"/>
<path d="M3.65947 74.2078C-1.22614 74.2756 -1.21347 78.2801 3.65947 78.3553C8.54531 78.2875 8.53253 74.283 3.65947 74.2078Z" fill="black"/>
<path d="M159.34 147.851C154.455 147.919 154.467 151.923 159.34 151.998C164.226 151.931 164.213 147.926 159.34 147.851Z" fill="black"/>
</svg>
